<svg width="60" height="60" viewBox="0 0 60 60" fill="none" xmlns="http://www.w3.org/2000/svg">
    <rect width="60" height="60" rx="30" fill="#D4D4D8" />
    <path
        d="M25.3914 25.0575C25.3914 22.5831 27.4029 20.5715 29.8773 20.5715C32.3516 20.5715 34.3632 22.5831 34.3632 25.0575C34.3538 27.4846 32.4555 29.4489 30.0378 29.5339H29.9717C29.9151 29.5245 29.8395 29.5245 29.764 29.5339C27.2896 29.4489 25.3914 27.4846 25.3914 25.0575Z"
        fill="#71717A" />
    <path
        d="M25.089 32.045C27.7428 30.2884 32.0398 30.2884 34.6747 32.045C35.8646 32.8383 36.5163 33.9149 36.5257 35.0765C36.5257 36.2476 35.8646 37.3242 34.6747 38.1269C33.3525 39.0147 31.6148 39.4586 29.8771 39.4586C28.1394 39.4586 26.4017 39.0147 25.0795 38.1269C23.8896 37.3336 23.2285 36.257 23.2285 35.0954C23.2285 33.9338 23.8896 32.8477 25.089 32.045Z"
        fill="#71717A" />
</svg>