<svg width="32" height="32" viewBox="0 0 32 32" fill="none" xmlns="http://www.w3.org/2000/svg">
    <path
        d="M9.67156 24C9.24668 24 8.8218 23.8435 8.48637 23.5082C7.83788 22.8599 7.83788 21.7869 8.48637 21.1387L21.1433 8.4862C21.7918 7.83793 22.8651 7.83793 23.5136 8.4862C24.1621 9.13447 24.1621 10.2075 23.5136 10.8557L10.8567 23.5082C10.5437 23.8435 10.0964 24 9.67156 24Z"
        fill="#71717A" />
    <path
        d="M22.3284 24C21.9036 24 21.4787 23.8435 21.1433 23.5082L8.48637 10.8557C7.83788 10.2075 7.83788 9.13447 8.48637 8.4862C9.13487 7.83793 10.2082 7.83793 10.8567 8.4862L23.5136 21.1387C24.1621 21.7869 24.1621 22.8599 23.5136 23.5082C23.1782 23.8435 22.7533 24 22.3284 24Z"
        fill="#71717A" />
</svg>