<svg width="16" height="16" viewBox="0 0 16 16" fill="none" xmlns="http://www.w3.org/2000/svg">
    <g clip-path="url(#clip0_3383_2805)">
        <path fill-rule="evenodd" clip-rule="evenodd"
            d="M7.99992 1.83334C4.59416 1.83334 1.83325 4.59425 1.83325 8.00001C1.83325 8.98738 2.06494 9.91921 2.47645 10.7454C2.64161 11.077 2.70521 11.4735 2.60101 11.863L2.20394 13.347C2.13101 13.6196 2.38036 13.8689 2.65291 13.796L4.13694 13.3989C4.5264 13.2947 4.92292 13.3583 5.25452 13.5235C6.08072 13.935 7.01255 14.1667 7.99992 14.1667C11.4057 14.1667 14.1666 11.4058 14.1666 8.00001C14.1666 4.59425 11.4057 1.83334 7.99992 1.83334ZM0.833252 8.00001C0.833252 4.04197 4.04188 0.833344 7.99992 0.833344C11.958 0.833344 15.1666 4.04197 15.1666 8.00001C15.1666 11.9581 11.958 15.1667 7.99992 15.1667C6.85438 15.1667 5.77027 14.8975 4.80868 14.4186C4.66519 14.3471 4.51868 14.332 4.39541 14.3649L2.91139 14.762C1.8955 15.0338 0.966101 14.1044 1.23792 13.0885L1.63499 11.6045C1.66797 11.4813 1.65281 11.3347 1.58134 11.1912C1.10239 10.2297 0.833252 9.14555 0.833252 8.00001ZM4.83325 7.00001C4.83325 6.72387 5.05711 6.50001 5.33325 6.50001H10.6666C10.9427 6.50001 11.1666 6.72387 11.1666 7.00001C11.1666 7.27615 10.9427 7.50001 10.6666 7.50001H5.33325C5.05711 7.50001 4.83325 7.27615 4.83325 7.00001ZM4.83325 9.33334C4.83325 9.0572 5.05711 8.83334 5.33325 8.83334H8.99992C9.27606 8.83334 9.49992 9.0572 9.49992 9.33334C9.49992 9.60949 9.27606 9.83334 8.99992 9.83334H5.33325C5.05711 9.83334 4.83325 9.60949 4.83325 9.33334Z"
            fill="currentColor" />
    </g>
    <defs>
        <clipPath id="clip0_3383_2805">
            <rect width="16" height="16" fill="white" />
        </clipPath>
    </defs>
</svg>