<svg width="20" height="20" viewBox="0 0 20 20" fill="none" xmlns="http://www.w3.org/2000/svg">
    <g clip-path="url(#clip0_3402_1514)">
        <path
            d="M11.9667 3.39884L12.7391 2.62644C14.0188 1.34669 16.0937 1.34669 17.3735 2.62644C18.6532 3.90619 18.6532 5.98109 17.3735 7.26084L16.6011 8.03324M11.9667 3.39884C11.9667 3.39884 12.0632 5.04019 13.5115 6.48844C14.9597 7.93669 16.6011 8.03324 16.6011 8.03324M11.9667 3.39884L4.86565 10.4999C4.38468 10.9808 4.14419 11.2213 3.93737 11.4865C3.6934 11.7993 3.48424 12.1377 3.31358 12.4958C3.1689 12.7994 3.06136 13.122 2.84626 13.7673L1.9348 16.5017M16.6011 8.03324L9.50004 15.1343C9.01907 15.6152 8.77859 15.8557 8.51343 16.0625C8.20064 16.3065 7.8622 16.5157 7.50411 16.6863C7.20054 16.831 6.87789 16.9386 6.23261 17.1537L3.49823 18.0651M3.49823 18.0651L2.82983 18.2879C2.51228 18.3938 2.16217 18.3111 1.92549 18.0744C1.6888 17.8377 1.60615 17.4876 1.712 17.1701L1.9348 16.5017M3.49823 18.0651L1.9348 16.5017"
            stroke="currentColor" stroke-width="1.5" />
    </g>
    <defs>
        <clipPath id="clip0_3402_1514">
            <rect width="20" height="20" fill="white" />
        </clipPath>
    </defs>
</svg>