<svg width="20" height="20" viewBox="0 0 20 20" fill="none" xmlns="http://www.w3.org/2000/svg">
    <path d="M17.0834 5H2.91663" stroke="currentColor" stroke-width="1.5" stroke-linecap="round" />
    <path
        d="M15.6944 7.08337L15.3111 12.8326C15.1637 15.0451 15.0899 16.1513 14.3691 16.8257C13.6482 17.5 12.5396 17.5 10.3222 17.5H9.67775C7.46042 17.5 6.35175 17.5 5.63091 16.8257C4.91007 16.1513 4.83632 15.0451 4.68883 12.8326L4.30554 7.08337"
        stroke="currentColor" stroke-width="1.5" stroke-linecap="round" />
    <path d="M7.91663 9.16663L8.33329 13.3333" stroke="currentColor" stroke-width="1.5"
        stroke-linecap="round" />
    <path d="M12.0833 9.16663L11.6666 13.3333" stroke="currentColor" stroke-width="1.5"
        stroke-linecap="round" />
    <path
        d="M5.41663 5C5.46319 5 5.48648 5 5.50758 4.99947C6.19379 4.98208 6.79915 4.54576 7.03264 3.90027C7.03982 3.88041 7.04719 3.85832 7.06191 3.81415L7.14282 3.57143C7.21188 3.36423 7.24642 3.26063 7.29222 3.17267C7.47497 2.82173 7.81308 2.57803 8.2038 2.51564C8.30173 2.5 8.41094 2.5 8.62934 2.5H11.3706C11.589 2.5 11.6982 2.5 11.7961 2.51564C12.1868 2.57803 12.525 2.82173 12.7077 3.17267C12.7535 3.26063 12.788 3.36423 12.8571 3.57143L12.938 3.81415C12.9527 3.85826 12.9601 3.88042 12.9673 3.90027C13.2008 4.54576 13.8061 4.98208 14.4923 4.99947C14.5134 5 14.5367 5 14.5833 5"
        stroke="currentColor" stroke-width="1.5" />
</svg>