<svg width="16" height="16" viewBox="0 0 16 16" fill="none" xmlns="http://www.w3.org/2000/svg">
    <path fill-rule="evenodd" clip-rule="evenodd"
        d="M7.99992 5.49999C6.61921 5.49999 5.49992 6.61928 5.49992 7.99999C5.49992 9.3807 6.61921 10.5 7.99992 10.5C9.38063 10.5 10.4999 9.3807 10.4999 7.99999C10.4999 6.61928 9.38063 5.49999 7.99992 5.49999ZM6.49992 7.99999C6.49992 7.17156 7.17149 6.49999 7.99992 6.49999C8.82835 6.49999 9.49992 7.17156 9.49992 7.99999C9.49992 8.82842 8.82835 9.49999 7.99992 9.49999C7.17149 9.49999 6.49992 8.82842 6.49992 7.99999Z"
        fill="currentColor" />
    <path fill-rule="evenodd" clip-rule="evenodd"
        d="M7.99992 2.16666C4.9905 2.16666 2.96345 3.96946 1.78696 5.4979L1.76575 5.52546C1.49968 5.87101 1.25463 6.18927 1.08838 6.56559C0.910348 6.96857 0.833252 7.40778 0.833252 7.99999C0.833252 8.5922 0.910348 9.03141 1.08838 9.43439C1.25463 9.81071 1.49968 10.129 1.76575 10.4745L1.78696 10.5021C2.96345 12.0305 4.9905 13.8333 7.99992 13.8333C11.0093 13.8333 13.0364 12.0305 14.2129 10.5021L14.2341 10.4745C14.5002 10.129 14.7452 9.81072 14.9115 9.43439C15.0895 9.03141 15.1666 8.5922 15.1666 7.99999C15.1666 7.40778 15.0895 6.96857 14.9115 6.56559C14.7452 6.18926 14.5002 5.871 14.2341 5.52544L14.2129 5.4979C13.0364 3.96945 11.0093 2.16666 7.99992 2.16666ZM2.5794 6.10786C3.66568 4.6966 5.43349 3.16666 7.99992 3.16666C10.5663 3.16666 12.3342 4.6966 13.4204 6.10786C13.7128 6.48772 13.8841 6.71469 13.9967 6.96969C14.102 7.208 14.1666 7.49928 14.1666 7.99999C14.1666 8.5007 14.102 8.79198 13.9967 9.03029C13.8841 9.28529 13.7128 9.51226 13.4204 9.89212C12.3342 11.3034 10.5663 12.8333 7.99992 12.8333C5.43349 12.8333 3.66568 11.3034 2.5794 9.89212C2.28701 9.51226 2.11574 9.28528 2.00309 9.03029C1.89781 8.79198 1.83325 8.5007 1.83325 7.99999C1.83325 7.49928 1.89781 7.208 2.00309 6.96969C2.11574 6.71469 2.28701 6.48772 2.5794 6.10786Z"
        fill="currentColor" />
</svg>